<?xml version="1.0" encoding="UTF-8" standalone="no"?><!DOCTYPE svg PUBLIC "-//W3C//DTD SVG 1.1//EN" "http://www.w3.org/Graphics/SVG/1.1/DTD/svg11.dtd"><svg width="100%" height="100%" viewBox="0 0 4961 3508" version="1.1" xmlns="http://www.w3.org/2000/svg" xmlns:xlink="http://www.w3.org/1999/xlink" xml:space="preserve" xmlns:serif="http://www.serif.com/" style="fill-rule:evenodd;clip-rule:evenodd;stroke-linejoin:round;stroke-miterlimit:2;"><path d="M729.571,1328.134c89.847,42.993 150.11,111.169 180.462,203.481c44.434,135.141 43.434,270.985 -10.982,403.015c-52.062,126.32 -152.11,194.323 -285.035,215.069c-35.196,5.493 -71.323,6.541 -107.046,6.837c-103.752,0.861 -207.516,0.305 -312.546,0.305l-0,-867.847c2.899,-0.521 5.693,-1.469 8.484,-1.459c119.216,0.41 238.439,0.323 357.646,1.638c58.323,0.644 114.267,14.151 169.018,38.961m16.672,481.09c1.338,-51.657 8.287,-103.919 2.787,-154.837c-9.908,-91.73 -51.227,-165.996 -143.413,-200.206c-74.755,-27.742 -152.702,-12.868 -229.438,-16.703l0,567.361c55.77,0 109.949,2.391 163.814,-0.695c50.458,-2.891 96.918,-20.496 135.056,-55.604c39.825,-36.662 59.099,-84.143 71.195,-139.316Z" style="fill:url(#_Linear1);fill-rule:nonzero;"/><path d="M4515.098,1499.135c109.033,-12.208 206.59,38.584 249.929,138.43c58.111,133.88 58.453,270.989 -5.67,402.925c-63.381,130.411 -235.463,171.796 -349.946,86.841c-26.72,-19.828 -46.48,-49.034 -69.523,-74.013c0,49.445 0,102.12 0,154.795c0,52.498 -0,104.996 -0,158.76l-175.084,0l0,-855.142l174.48,0l0,108.841c39.121,-69.13 93.902,-113.042 175.813,-121.437m109.793,303.754c-5.613,-24.087 -8.415,-49.284 -17.402,-72.038c-21.119,-53.469 -60.315,-85.115 -119.701,-86.89c-59.116,-1.766 -100.98,26.244 -125.551,78.575c-31.723,67.563 -31.484,138.011 -7.045,207.046c22.748,64.256 71.907,96.45 132.987,94.172c61.361,-2.288 106.898,-37.446 124.362,-104.378c9.427,-36.132 8.813,-74.884 12.349,-116.487Z" style="fill:url(#_Linear2);fill-rule:nonzero;"/><path d="M1135.783,2138.524c-70.437,-34.971 -115.009,-90.023 -142.237,-161.321c-31.137,-81.533 -33.787,-165.473 -11.997,-247.644c40.765,-153.722 151.401,-236.263 313.126,-231.61c102.549,2.95 187.173,42.049 244.232,130.809c31.538,49.061 46.172,103.798 49.669,161.442c1.677,27.637 0.289,55.46 0.289,85.135l-440.437,0c-15.829,89.736 60.134,169.989 152.957,163.452c50.999,-3.591 93.377,-22.082 118.083,-70.421c2.12,-4.149 8.243,-8.829 12.562,-8.883c49.56,-0.623 99.13,-0.397 151.048,-0.397c-9.485,53.871 -34.398,96.336 -71.584,131.659c-68.244,64.826 -152.283,82.433 -242.914,78.922c-45.677,-1.77 -89.732,-10.864 -132.796,-31.143m274.187,-420.454c-28.082,-69.66 -87.588,-101.635 -158.996,-85.436c-57.666,13.082 -104.238,73.491 -100.567,130.37l270.598,0c-3.559,-14.926 -6.74,-28.267 -11.036,-44.934Z" style="fill:url(#_Linear3);fill-rule:nonzero;"/><path d="M3031.479,2161.229c-122.461,-28.557 -206.048,-118.672 -226.099,-244.135c-12.394,-77.55 -11.423,-154.765 17.57,-228.953c43.721,-111.875 127.821,-172.673 245.79,-187.441c61.753,-7.73 122.482,-2.542 181.077,20.336c83.597,32.639 139.934,92.385 167.597,176.629c30.767,93.697 30.036,188.967 -3.362,282.022c-43.054,119.957 -148.924,189.355 -287.078,189.905c-31.244,0.124 -62.508,-5.009 -95.493,-8.362m-47.058,-254.567c4.296,13.877 7.427,28.25 13.092,41.543c24.091,56.541 65.66,84.433 123.758,83.671c59.158,-0.777 97.819,-32.446 117.977,-85.214c28.975,-75.852 29.308,-153.615 -1.35,-228.823c-21.228,-52.075 -61.849,-82.056 -120.832,-81.625c-58.023,0.424 -96.192,30.578 -118.498,81.711c-26.033,59.675 -25.739,122.097 -14.147,188.737Z" style="fill:url(#_Linear4);fill-rule:nonzero;"/><path d="M3985.857,1564.36c67.712,47.156 105.488,111.654 121.414,189.897c13.451,66.084 13.91,132.56 -2.716,197.78c-32.11,125.963 -110.705,205.919 -241.279,225.403c-128.819,19.222 -245.316,-4.145 -327.416,-117.21c-48.461,-66.74 -60.892,-144.347 -59.427,-224.574c1.444,-79.111 19.806,-153.621 71.072,-216.287c68.017,-83.142 159.734,-110.936 263.248,-108.177c62.478,1.665 121.105,17.439 175.104,53.167m-305.173,158.031c-34.311,78.168 -34.649,157.871 -5.984,236.96c20.901,57.667 66.055,86.385 124.54,85.883c55.73,-0.478 98.774,-31.481 119.803,-89.201c25.1,-68.897 25.416,-139.222 3.335,-208.678c-16.618,-52.274 -50.531,-89.511 -107.673,-96.895c-59.216,-7.651 -103.603,16.924 -134.021,71.931Z" style="fill:url(#_Linear5);fill-rule:nonzero;"/><path d="M2787.324,2006.324l0,149.235l-561.032,0l0,-866.898l179.629,0l0,717.663l381.402,0Z" style="fill:url(#_Linear6);fill-rule:nonzero;"/><path d="M2041.41,1966.064c-20.139,58.89 -40.349,115.94 -59.331,173.396c-4.414,13.36 -10.452,17.982 -24.664,17.75c-54.12,-0.882 -108.269,-0.76 -162.395,-0.063c-13.042,0.168 -18.784,-3.566 -23.218,-16.462c-70.174,-204.09 -141.04,-407.943 -211.674,-611.875c-1.859,-5.367 -2.887,-11.023 -4.567,-17.576l186.533,0c44.714,162.349 89.392,324.564 135.837,493.198c4.335,-12.035 7.043,-18.17 8.777,-24.569c40.455,-149.268 81.01,-298.509 120.868,-447.937c4.201,-15.749 10.041,-22.414 27.741,-21.945c52.588,1.392 105.236,0.499 162.422,0.499c-52.536,152.902 -104.245,303.397 -156.33,455.585Z" style="fill:url(#_Linear7);fill-rule:nonzero;"/><g transform="matrix(204.646872,0,0,204.646872,2494.404418,2453.890568)"></g><text x="287.456px" y="2453.891px" style="font-family:'ArialMT', 'Arial', sans-serif;font-size:204.647px;fill:#e38c3b;">Developers organization</text><defs><linearGradient id="_Linear1" x1="0" y1="0" x2="1" y2="0" gradientUnits="userSpaceOnUse" gradientTransform="matrix(0,879.417623,-879.417623,0,2736.95789,1288.661338)"><stop offset="0" style="stop-color:#1d304c;stop-opacity:1"/><stop offset="0.53" style="stop-color:#1f3950;stop-opacity:1"/><stop offset="1" style="stop-color:#24585d;stop-opacity:1"/></linearGradient><linearGradient id="_Linear2" x1="0" y1="0" x2="1" y2="0" gradientUnits="userSpaceOnUse" gradientTransform="matrix(0,879.417623,-879.417623,0,2937.139062,1288.661338)"><stop offset="0" style="stop-color:#1d304c;stop-opacity:1"/><stop offset="0.53" style="stop-color:#1f3950;stop-opacity:1"/><stop offset="1" style="stop-color:#24585d;stop-opacity:1"/></linearGradient><linearGradient id="_Linear3" x1="0" y1="0" x2="1" y2="0" gradientUnits="userSpaceOnUse" gradientTransform="matrix(0,879.417623,-879.417623,0,2736.95789,1288.661338)"><stop offset="0" style="stop-color:#1d304c;stop-opacity:1"/><stop offset="0.53" style="stop-color:#1f3950;stop-opacity:1"/><stop offset="1" style="stop-color:#24585d;stop-opacity:1"/></linearGradient><linearGradient id="_Linear4" x1="0" y1="0" x2="1" y2="0" gradientUnits="userSpaceOnUse" gradientTransform="matrix(0,879.417623,-879.417623,0,2736.95789,1288.661338)"><stop offset="0" style="stop-color:#1d304c;stop-opacity:1"/><stop offset="0.53" style="stop-color:#1f3950;stop-opacity:1"/><stop offset="1" style="stop-color:#24585d;stop-opacity:1"/></linearGradient><linearGradient id="_Linear5" x1="0" y1="0" x2="1" y2="0" gradientUnits="userSpaceOnUse" gradientTransform="matrix(0,879.417623,-879.417623,0,2937.139062,1288.661338)"><stop offset="0" style="stop-color:#1d304c;stop-opacity:1"/><stop offset="0.53" style="stop-color:#1f3950;stop-opacity:1"/><stop offset="1" style="stop-color:#24585d;stop-opacity:1"/></linearGradient><linearGradient id="_Linear6" x1="0" y1="0" x2="1" y2="0" gradientUnits="userSpaceOnUse" gradientTransform="matrix(0,879.417623,-879.417623,0,2736.95789,1288.661338)"><stop offset="0" style="stop-color:#1d304c;stop-opacity:1"/><stop offset="0.53" style="stop-color:#1f3950;stop-opacity:1"/><stop offset="1" style="stop-color:#24585d;stop-opacity:1"/></linearGradient><linearGradient id="_Linear7" x1="0" y1="0" x2="1" y2="0" gradientUnits="userSpaceOnUse" gradientTransform="matrix(0,879.417623,-879.417623,0,2736.95789,1288.661338)"><stop offset="0" style="stop-color:#1d304c;stop-opacity:1"/><stop offset="0.53" style="stop-color:#1f3950;stop-opacity:1"/><stop offset="1" style="stop-color:#24585d;stop-opacity:1"/></linearGradient></defs></svg>