<?xml version="1.0" encoding="UTF-8" standalone="no"?><!DOCTYPE svg PUBLIC "-//W3C//DTD SVG 1.1//EN" "http://www.w3.org/Graphics/SVG/1.1/DTD/svg11.dtd"><svg width="100%" height="100%" viewBox="0 0 4296 2819" version="1.1" xmlns="http://www.w3.org/2000/svg" xmlns:xlink="http://www.w3.org/1999/xlink" xml:space="preserve" xmlns:serif="http://www.serif.com/" style="fill-rule:evenodd;clip-rule:evenodd;stroke-linejoin:round;stroke-miterlimit:2;"><path d="M867.707,1380.317c108.02,-99.667 202.246,-206.855 340.78,-289.949c-136.69,-39.721 -257.629,-32.581 -377.581,7.806c-219.522,73.912 -370.734,272.032 -367.419,502.576c2.072,144.016 -146.047,262.829 -276.724,287.201c-42.86,7.994 -45.136,-28.007 -50.864,-53.461c-74.162,-329.581 8.164,-696.583 303.72,-925.441c302.477,-234.217 635.566,-240.401 981.157,-109.549c50.411,19.087 99.262,42.289 148.936,63.348c1.935,0.821 4.923,-0.84 15.506,-2.976c0.434,-106.592 82.973,-136.295 166.021,-166.44c47.995,82.757 45.222,88.08 -105.097,205.694c37.992,68.022 81.001,-5.621 126.404,6.67c14.243,46.15 38.934,84.723 102.905,81.592c31.902,-1.561 35.568,34.562 36.932,59.39c2.604,47.426 28.183,60.461 71.08,59.989c115.926,-1.277 233.158,-10.146 330.033,76.795c31.084,27.896 50.952,-9.974 69.638,-27.469c119.165,-111.563 246.567,-212.055 389.981,-290.661c275.539,-151.023 565.07,-210.168 872.194,-116.282c346.358,105.879 537.298,355.068 604.626,699.2c86.466,441.957 -151.922,861.901 -572.054,1015.293c-283.118,103.368 -559.014,55.771 -825.256,-68.661c-146.149,-68.305 -276.543,-161.727 -391.905,-273.52c-59.646,-57.801 -121.12,-91.708 -205.396,-80.095c-21.391,2.948 -46.66,6.728 -65.139,-12.76c-8.783,-22.513 8.472,-33.811 19.807,-46.602c116.33,-131.275 233.599,-261.724 349.436,-393.434c110.175,-125.272 284.818,-169.621 457.935,-112.213c84.66,28.074 162.091,75.991 258.217,69.596c47.001,-3.128 82.424,36.608 111.863,74.815c63.037,81.814 127.253,161.649 221.971,211.937c38.175,20.268 92.136,36.43 89.979,94.281c-1.468,39.342 -111.572,116.508 -159.883,116.567c-167.73,0.207 -335.459,-0.547 -503.189,-0.91c-30.23,-0.065 -60.46,-0.009 -91.943,7.752c119.617,82.082 252.287,123.435 394.974,121.214c451.948,-7.034 710.237,-463.946 486.623,-856.858c-122.184,-214.689 -407.096,-315.523 -678.906,-239.566c-207.225,57.909 -375.359,178.692 -525.828,328.035c-154.097,152.944 -284.839,326.451 -430.528,486.859c-221.22,243.571 -463.699,459.356 -781.52,564.986c-396.742,131.86 -763.618,90.5 -1071.773,-220.6c-26.905,-27.162 -55.267,-54.396 -64.343,-93.639c3.611,-5.039 6.574,-12.646 9.376,-12.587c196.317,4.106 392.806,-41.813 589.123,21.134c206.226,66.124 398.583,11.837 578.237,-107.526l-1280.465,0c19.113,-74.863 74.231,-99.834 125.094,-111.176c78.145,-17.426 134.687,-60.674 167.349,-125.624c91.657,-182.267 245.555,-302.152 405.917,-424.734Zm709.366,453.535c-7.749,50.779 -30.613,99.743 -24.255,154.764c62.832,-14.715 80.243,-58.724 89.92,-108.718c26.697,-137.93 86.763,-256.987 194.439,-350.312c19.277,-16.709 53.586,-34.059 24.557,-68.081c-30.624,-35.889 -56.554,-7.694 -77.864,12.621c-100.929,96.22 -168.379,212.743 -206.796,359.726Z" style="fill:url(#_Linear1);"/><path d="M1601.613,500.661c-11.626,-81.751 58.752,-111.889 81.797,-167.774c87.165,52.992 79.134,144.94 106.399,219.821c8.868,24.355 -14.666,42.691 -33.805,55.461c-40.097,26.756 -79.828,54.926 -134.924,68.904c-4.525,-58.792 -35.615,-110.814 -19.467,-176.412Z" style="fill:#e38c3b;fill-rule:nonzero;"/><defs><linearGradient id="_Linear1" x1="0" y1="0" x2="1" y2="0" gradientUnits="userSpaceOnUse" gradientTransform="matrix(0,2336.07527,-2336.07527,0,2188.899184,959.409505)"><stop offset="0" style="stop-color:#1b2e4b;stop-opacity:1"/><stop offset="1" style="stop-color:#24585d;stop-opacity:1"/></linearGradient></defs></svg>