<?xml version="1.0" encoding="UTF-8" standalone="no"?><!DOCTYPE svg PUBLIC "-//W3C//DTD SVG 1.1//EN" "http://www.w3.org/Graphics/SVG/1.1/DTD/svg11.dtd"><svg width="100%" height="100%" viewBox="0 0 4994 3532" version="1.1" xmlns="http://www.w3.org/2000/svg" xmlns:xlink="http://www.w3.org/1999/xlink" xml:space="preserve" xmlns:serif="http://www.serif.com/" style="fill-rule:evenodd;clip-rule:evenodd;stroke-linejoin:round;stroke-miterlimit:2;"><path d="M2458.96,1632.746c41.133,19.683 68.722,50.895 82.618,93.157c20.343,61.87 19.885,124.061 -5.028,184.506c-23.835,57.831 -69.638,88.964 -130.493,98.461c-16.113,2.515 -32.653,2.994 -49.007,3.13c-47.499,0.394 -95.004,0.14 -143.088,0.14l0,-397.312c1.327,-0.238 2.606,-0.672 3.884,-0.668c54.579,0.188 109.16,0.148 163.735,0.75c26.701,0.295 52.313,6.479 77.379,17.837m7.633,220.25c0.613,-23.649 3.794,-47.576 1.276,-70.886c-4.536,-41.995 -23.452,-75.995 -65.657,-91.657c-34.224,-12.7 -69.909,-5.891 -105.04,-7.647l0,259.746c25.532,0 50.336,1.095 74.996,-0.318c23.1,-1.324 44.37,-9.383 61.83,-25.456c18.233,-16.784 27.056,-38.522 32.594,-63.781Z" style="fill:url(#_Linear1);fill-rule:nonzero;"/><path d="M4192.025,1711.033c49.917,-5.589 94.58,17.664 114.421,63.375c26.604,61.292 26.761,124.062 -2.596,184.464c-29.017,59.704 -107.798,78.651 -160.21,39.757c-12.233,-9.077 -21.279,-22.448 -31.829,-33.884c0,22.637 0,46.752 0,70.867c0,24.034 -0,48.069 -0,72.683l-80.156,0l0,-391.495l79.879,0l0,49.829c17.91,-31.648 42.99,-51.752 80.49,-55.596m50.265,139.063c-2.57,-11.027 -3.852,-22.563 -7.967,-32.98c-9.669,-24.479 -27.613,-38.967 -54.801,-39.779c-27.064,-0.809 -46.23,12.015 -57.479,35.973c-14.523,30.931 -14.414,63.184 -3.225,94.789c10.414,29.417 32.92,44.156 60.883,43.113c28.092,-1.048 48.939,-17.143 56.935,-47.786c4.316,-16.542 4.035,-34.283 5.654,-53.329Z" style="fill:url(#_Linear2);fill-rule:nonzero;"/><path d="M2644.929,2003.754c-32.247,-16.01 -52.652,-41.214 -65.118,-73.855c-14.255,-37.327 -15.468,-75.756 -5.492,-113.375c18.663,-70.376 69.313,-108.165 143.353,-106.034c46.948,1.351 85.69,19.251 111.813,59.886c14.439,22.461 21.138,47.52 22.739,73.91c0.768,12.653 0.132,25.39 0.132,38.976l-201.638,0c-7.247,41.082 27.53,77.823 70.026,74.831c23.348,-1.644 42.749,-10.11 54.06,-32.24c0.971,-1.899 3.774,-4.042 5.751,-4.067c22.689,-0.285 45.383,-0.182 69.152,-0.182c-4.343,24.663 -15.748,44.104 -32.772,60.275c-31.243,29.678 -69.717,37.739 -111.209,36.132c-20.912,-0.81 -41.08,-4.974 -60.796,-14.258m125.527,-192.489c-12.856,-31.891 -40.099,-46.53 -72.791,-39.114c-26.4,5.989 -47.722,33.645 -46.041,59.685l123.883,0c-1.629,-6.833 -3.085,-12.941 -5.052,-20.572Z" style="fill:url(#_Linear3);fill-rule:nonzero;"/><path d="M3512.804,2014.148c-56.064,-13.074 -94.332,-54.33 -103.511,-111.768c-5.674,-35.504 -5.23,-70.854 8.044,-104.818c20.016,-51.218 58.518,-79.052 112.526,-85.813c28.271,-3.539 56.074,-1.164 82.899,9.31c38.272,14.943 64.064,42.295 76.728,80.863c14.085,42.896 13.751,86.512 -1.539,129.113c-19.711,54.918 -68.18,86.689 -131.428,86.941c-14.304,0.057 -28.617,-2.293 -43.718,-3.828m-21.544,-116.544c1.967,6.353 3.4,12.933 5.994,19.019c11.029,25.885 30.06,38.655 56.658,38.306c27.083,-0.356 44.783,-14.854 54.011,-39.012c13.265,-34.726 13.418,-70.327 -0.618,-104.758c-9.719,-23.841 -28.315,-37.566 -55.319,-37.369c-26.563,0.194 -44.038,13.999 -54.25,37.409c-11.918,27.32 -11.784,55.898 -6.477,86.406Z" style="fill:url(#_Linear4);fill-rule:nonzero;"/><path d="M3949.732,1740.894c31,21.589 48.294,51.117 55.585,86.937c6.158,30.254 6.368,60.688 -1.244,90.546c-14.7,57.668 -50.682,94.272 -110.461,103.193c-58.975,8.8 -112.309,-1.898 -149.895,-53.66c-22.186,-30.554 -27.877,-66.084 -27.207,-102.813c0.661,-36.218 9.067,-70.33 32.538,-99.019c31.139,-38.064 73.128,-50.788 120.518,-49.525c28.603,0.762 55.444,7.984 80.165,24.341m-139.712,72.349c-15.708,35.786 -15.863,72.275 -2.74,108.484c9.569,26.401 30.241,39.548 57.016,39.319c25.514,-0.219 45.22,-14.412 54.847,-40.838c11.491,-31.542 11.636,-63.738 1.527,-95.536c-7.608,-23.932 -23.134,-40.98 -49.294,-44.36c-27.11,-3.503 -47.431,7.748 -61.356,32.931Z" style="fill:url(#_Linear5);fill-rule:nonzero;"/><path d="M3401.027,1943.231l0,68.322l-256.848,0l0,-396.877l82.237,0l0,328.556l174.611,0Z" style="fill:url(#_Linear6);fill-rule:nonzero;"/><path d="M3059.537,1924.799c-9.22,26.961 -18.472,53.079 -27.162,79.383c-2.021,6.117 -4.785,8.232 -11.291,8.126c-24.777,-0.404 -49.567,-0.348 -74.347,-0.029c-5.971,0.077 -8.599,-1.633 -10.63,-7.537c-32.127,-93.435 -64.57,-186.762 -96.907,-280.125c-0.851,-2.457 -1.322,-5.046 -2.091,-8.047l85.397,0c20.471,74.326 40.925,148.59 62.188,225.793c1.985,-5.51 3.224,-8.319 4.018,-11.248c18.521,-68.337 37.088,-136.662 55.335,-205.072c1.923,-7.21 4.597,-10.261 12.7,-10.047c24.075,0.637 48.178,0.228 74.359,0.228c-24.052,70.001 -47.725,138.899 -71.57,208.573Z" style="fill:url(#_Linear7);fill-rule:nonzero;"/><g transform="matrix(93.690103,0,0,93.690103,3266.924328,2148.132793)"></g><text x="2256.553px" y="2148.133px" style="font-family:'ArialMT', 'Arial', sans-serif;font-size:93.69px;fill:#e38c3b;">Developers organization</text><path d="M906.243,1755.021c38.41,-36.438 71.914,-75.627 121.174,-106.006c-48.604,-14.522 -91.607,-11.912 -134.26,2.854c-78.057,27.022 -131.825,99.455 -130.646,183.743c0.737,52.653 -51.931,96.091 -98.397,105.001c-15.24,2.923 -16.049,-10.239 -18.086,-19.546c-26.37,-120.495 2.903,-254.672 107.996,-338.343c107.554,-85.63 225.993,-87.891 348.878,-40.051c17.925,6.978 35.295,15.461 52.958,23.16c0.688,0.3 1.751,-0.307 5.514,-1.088c0.154,-38.97 29.503,-49.83 59.033,-60.851c17.066,30.256 16.08,32.202 -37.37,75.202c13.509,24.869 28.802,-2.055 44.947,2.439c5.065,16.873 13.844,30.975 36.591,29.83c11.344,-0.571 12.647,12.636 13.132,21.713c0.926,17.339 10.021,22.105 25.274,21.932c41.221,-0.467 82.906,-3.709 117.352,28.076c11.053,10.199 18.117,-3.647 24.762,-10.043c42.372,-40.788 87.674,-77.528 138.669,-106.266c97.976,-55.214 200.926,-76.838 310.133,-42.513c123.157,38.709 191.051,129.814 214.992,255.629c30.746,161.58 -54.02,315.113 -203.41,371.193c-100.671,37.792 -198.773,20.39 -293.443,-25.103c-51.967,-24.972 -98.333,-59.128 -139.353,-100c-21.209,-21.132 -43.068,-33.529 -73.034,-29.283c-7.606,1.078 -16.591,2.46 -23.162,-4.665c-3.123,-8.231 3.012,-12.362 7.043,-17.038c41.365,-47.995 83.063,-95.687 124.252,-143.84c39.176,-45.8 101.275,-62.014 162.831,-41.025c30.103,10.264 57.636,27.783 91.816,25.444c16.713,-1.143 29.308,13.384 39.776,27.353c22.414,29.911 45.249,59.099 78.928,77.484c13.574,7.41 32.761,13.319 31.995,34.469c-0.522,14.383 -39.672,42.595 -56.851,42.617c-59.641,0.076 -119.282,-0.2 -178.923,-0.333c-10.749,-0.024 -21.498,-0.003 -32.693,2.834c42.533,30.01 89.708,45.128 140.444,44.316c160.703,-2.572 252.545,-169.62 173.032,-313.269c-43.446,-78.491 -144.755,-115.356 -241.404,-87.586c-73.685,21.172 -133.469,65.33 -186.973,119.93c-54.793,55.917 -101.283,119.351 -153.086,177.997c-78.661,89.05 -164.881,167.942 -277.891,206.56c-141.073,48.208 -271.526,33.087 -381.099,-80.652c-9.567,-9.93 -19.652,-19.887 -22.879,-34.234c1.284,-1.842 2.337,-4.623 3.334,-4.602c69.806,1.501 139.673,-15.287 209.479,7.727c73.33,24.175 141.727,4.328 205.608,-39.312l-455.305,0c6.796,-27.37 26.395,-36.499 44.481,-40.646c27.786,-6.371 47.892,-22.183 59.506,-45.928c32.591,-66.637 87.314,-110.468 144.335,-155.284Zm252.235,165.813c-2.755,18.565 -10.885,36.466 -8.625,56.582c22.342,-5.38 28.533,-21.47 31.973,-39.748c9.493,-50.427 30.851,-93.955 69.138,-128.075c6.855,-6.109 19.054,-12.452 8.732,-24.89c-10.889,-13.121 -20.109,-2.813 -27.687,4.614c-35.888,35.178 -59.872,77.779 -73.532,131.516Z" style="fill:url(#_Linear8);"/><path d="M1167.203,1433.417c-4.134,-29.888 20.891,-40.907 29.085,-61.339c30.994,19.374 28.138,52.99 37.833,80.367c3.153,8.904 -5.215,15.608 -12.02,20.277c-14.258,9.782 -28.385,20.081 -47.976,25.191c-1.609,-21.495 -12.664,-40.514 -6.922,-64.497Z" style="fill:#e38c3b;fill-rule:nonzero;"/><defs><linearGradient id="_Linear1" x1="0" y1="0" x2="1" y2="0" gradientUnits="userSpaceOnUse" gradientTransform="matrix(0,402.609267,-402.609267,0,3377.968584,1614.675111)"><stop offset="0" style="stop-color:#1d304c;stop-opacity:1"/><stop offset="0.53" style="stop-color:#1f3950;stop-opacity:1"/><stop offset="1" style="stop-color:#24585d;stop-opacity:1"/></linearGradient><linearGradient id="_Linear2" x1="0" y1="0" x2="1" y2="0" gradientUnits="userSpaceOnUse" gradientTransform="matrix(0,402.609267,-402.609267,0,3469.614228,1614.675111)"><stop offset="0" style="stop-color:#1d304c;stop-opacity:1"/><stop offset="0.53" style="stop-color:#1f3950;stop-opacity:1"/><stop offset="1" style="stop-color:#24585d;stop-opacity:1"/></linearGradient><linearGradient id="_Linear3" x1="0" y1="0" x2="1" y2="0" gradientUnits="userSpaceOnUse" gradientTransform="matrix(0,402.609267,-402.609267,0,3377.968584,1614.675111)"><stop offset="0" style="stop-color:#1d304c;stop-opacity:1"/><stop offset="0.53" style="stop-color:#1f3950;stop-opacity:1"/><stop offset="1" style="stop-color:#24585d;stop-opacity:1"/></linearGradient><linearGradient id="_Linear4" x1="0" y1="0" x2="1" y2="0" gradientUnits="userSpaceOnUse" gradientTransform="matrix(0,402.609267,-402.609267,0,3377.968584,1614.675111)"><stop offset="0" style="stop-color:#1d304c;stop-opacity:1"/><stop offset="0.53" style="stop-color:#1f3950;stop-opacity:1"/><stop offset="1" style="stop-color:#24585d;stop-opacity:1"/></linearGradient><linearGradient id="_Linear5" x1="0" y1="0" x2="1" y2="0" gradientUnits="userSpaceOnUse" gradientTransform="matrix(0,402.609267,-402.609267,0,3469.614228,1614.675111)"><stop offset="0" style="stop-color:#1d304c;stop-opacity:1"/><stop offset="0.53" style="stop-color:#1f3950;stop-opacity:1"/><stop offset="1" style="stop-color:#24585d;stop-opacity:1"/></linearGradient><linearGradient id="_Linear6" x1="0" y1="0" x2="1" y2="0" gradientUnits="userSpaceOnUse" gradientTransform="matrix(0,402.609267,-402.609267,0,3377.968584,1614.675111)"><stop offset="0" style="stop-color:#1d304c;stop-opacity:1"/><stop offset="0.53" style="stop-color:#1f3950;stop-opacity:1"/><stop offset="1" style="stop-color:#24585d;stop-opacity:1"/></linearGradient><linearGradient id="_Linear7" x1="0" y1="0" x2="1" y2="0" gradientUnits="userSpaceOnUse" gradientTransform="matrix(0,402.609267,-402.609267,0,3377.968584,1614.675111)"><stop offset="0" style="stop-color:#1d304c;stop-opacity:1"/><stop offset="0.53" style="stop-color:#1f3950;stop-opacity:1"/><stop offset="1" style="stop-color:#24585d;stop-opacity:1"/></linearGradient><linearGradient id="_Linear8" x1="0" y1="0" x2="1" y2="0" gradientUnits="userSpaceOnUse" gradientTransform="matrix(0,854.073824,-830.657061,0,1376.029587,1601.136863)"><stop offset="0" style="stop-color:#1b2e4b;stop-opacity:1"/><stop offset="1" style="stop-color:#24585d;stop-opacity:1"/></linearGradient></defs></svg>